<svg xmlns="http://www.w3.org/2000/svg" viewBox="0 0 800 500" width="800" height="500">
  <!-- Background gradient -->
  <defs>
    <linearGradient id="bg-gradient" x1="0%" y1="0%" x2="100%" y2="100%">
      <stop offset="0%" stop-color="#f3f4f6" stop-opacity="0.8" />
      <stop offset="100%" stop-color="#e5e7eb" stop-opacity="0.8" />
    </linearGradient>
    <linearGradient id="doc-gradient" x1="0%" y1="0%" x2="100%" y2="100%">
      <stop offset="0%" stop-color="#667eea" />
      <stop offset="100%" stop-color="#764ba2" />
    </linearGradient>
    <filter id="shadow" x="-20%" y="-20%" width="140%" height="140%">
      <feGaussianBlur in="SourceAlpha" stdDeviation="10" />
      <feOffset dx="5" dy="5" result="offsetblur" />
      <feComponentTransfer>
        <feFuncA type="linear" slope="0.2" />
      </feComponentTransfer>
      <feMerge>
        <feMergeNode />
        <feMergeNode in="SourceGraphic" />
      </feMerge>
    </filter>
  </defs>
  
  <!-- Background -->
  <rect width="800" height="500" fill="url(#bg-gradient)" />
  
  <!-- Main document -->
  <rect x="200" y="100" width="400" height="300" rx="10" fill="white" filter="url(#shadow)" />
  
  <!-- Document header -->
  <rect x="200" y="100" width="400" height="50" rx="10" fill="url(#doc-gradient)" />
  <circle cx="230" cy="125" r="10" fill="white" opacity="0.7" />
  <circle cx="260" cy="125" r="10" fill="white" opacity="0.7" />
  <circle cx="290" cy="125" r="10" fill="white" opacity="0.7" />
  
  <!-- Document content lines -->
  <rect x="230" y="180" width="340" height="10" rx="5" fill="#e5e7eb" />
  <rect x="230" y="210" width="300" height="10" rx="5" fill="#e5e7eb" />
  <rect x="230" y="240" width="340" height="10" rx="5" fill="#e5e7eb" />
  <rect x="230" y="270" width="280" height="10" rx="5" fill="#e5e7eb" />
  <rect x="230" y="300" width="320" height="10" rx="5" fill="#e5e7eb" />
  <rect x="230" y="330" width="200" height="10" rx="5" fill="#e5e7eb" />
  
  <!-- Google Docs icon -->
  <rect x="550" y="350" width="40" height="40" rx="5" fill="#4285f4" />
  <path d="M560,360 L580,360 L580,380 L560,380 Z" fill="white" />
  <rect x="565" y="365" width="10" height="2" fill="#4285f4" />
  <rect x="565" y="370" width="10" height="2" fill="#4285f4" />
  <rect x="565" y="375" width="10" height="2" fill="#4285f4" />
  
  <!-- Floating elements -->
  <circle cx="150" cy="150" r="30" fill="#fbbf24" opacity="0.7" />
  <circle cx="650" cy="200" r="40" fill="#667eea" opacity="0.5" />
  <circle cx="700" cy="350" r="25" fill="#764ba2" opacity="0.6" />
  <circle cx="100" cy="300" r="35" fill="#0dcaf0" opacity="0.5" />
  
  <!-- Edit pen -->
  <path d="M500,150 L530,120 L550,140 L520,170 Z" fill="url(#doc-gradient)" />
  <line x1="520" y1="170" x2="500" y2="150" stroke="#764ba2" stroke-width="2" />
</svg>